<?xml version="1.0" encoding="UTF-8"?>
<svg fill="none" viewBox="0 0 21 21" xmlns="http://www.w3.org/2000/svg">
<mask id="b" fill="white">
<path d="m12.092 18.592 3.3786 1.1007c1.0928 0.3559 2.2859-0.0857 2.8119-0.9946l0.6239 0.2037c-0.6329 1.1835-2.1297 1.7868-3.5287 1.3947l-0.1319-0.0401-4.4556-1.4507-0.0059-0.0024-6e-3 -0.0023-10.712-3.4894 0.22153-0.5649 11.804 3.8453z"/>
</mask>
<path d="m12.092 18.592 0.6177-1.9016h-1e-4l-0.6176 1.9016zm3.3786 1.1007-0.6177 1.9016 2e-4 1e-4 0.6175-1.9017zm2.8119-0.9946 0.6188-1.9012-1.5395-0.5025-0.8105 1.4005 1.7312 1.0032zm0.6239 0.2037 1.7639 0.9446 1.1255-2.1047-2.2706-0.7412-0.6188 1.9013zm-3.5287 1.3947-0.5799 1.9135 0.021 0.0064 0.0211 0.0059 0.5378-1.9258zm-0.1319-0.0401-0.6174 1.9017 0.0187 0.0061 0.0189 0.0057 0.5798-1.9135zm-4.4556-1.4507-0.7392 1.8575 0.0602 0.0241 0.0616 0.02 0.6174-1.9016zm-0.0059-0.0024 0.7392-1.8575-5e-4 -2e-4 -0.7387 1.8577zm-6e-3 -0.0023 0.7388-1.8578-0.0599-0.0239-0.0613-0.0199-0.6176 1.9016zm-10.712-3.4894-1.8621-0.7319-0.77482 1.9757 2.0193 0.6577 0.61761-1.9015zm0.22153-0.5649 0.61764-1.9016-1.7921-0.5838-0.68764 1.7535 1.8621 0.7319zm11.187 5.7468 3.3786 1.1008 1.2354-3.8031-3.3786-1.1008-1.2354 3.8031zm3.3788 1.1009c1.9209 0.6256 4.1267-0.1065 5.1607-1.893l-3.4625-2.0065c-0.0037 0.0064-0.038 0.0559-0.1391 0.0922-0.0985 0.0353-0.2145 0.0397-0.3241 4e-3l-1.235 3.8033zm2.8107-0.9951 0.6239 0.2037 1.2375-3.8025-0.6239-0.2036-1.2375 3.8024zm-0.5213-2.6422c-0.1521 0.2846-0.649 0.5757-1.227 0.4137l-1.0756 3.8515c2.2201 0.6222 4.7167-0.2934 5.8304-2.3759l-3.5278-1.8893zm-1.185 0.426-0.1319-0.0401-1.1596 3.8269 0.1318 0.0401 1.1597-3.8269zm-0.0943-0.0283-4.4556-1.4508-1.2348 3.8033 4.4556 1.4508 1.2348-3.8033zm-4.3337-1.4067-6e-3 -0.0023-1.4785 3.7151 6e-3 0.0023 1.4785-3.7151zm-0.0065-0.0025-0.0059-0.0024-1.4775 3.7155 0.0059 0.0024 1.4775-3.7155zm-0.1271-0.0462-10.712-3.4894-1.2352 3.8031 10.712 3.4894 1.2352-3.8031zm-9.4678-0.8559 0.22153-0.5649-3.7241-1.4638-0.22153 0.5649 3.7241 1.4638zm-2.2582 0.6048 11.804 3.8452 1.2352-3.8031-11.804-3.8453-1.2353 3.8032z" fill="#F7F5F2" mask="url(#b)"/>
<mask id="a" fill="white">
<path d="m12.023 17.992 3.3877-4.2214c0.3245-0.4035 0.2908-0.9528-0.0611-1.3211l-0.0086-0.0091-0.0085-0.0077-0.0694-0.0632-0.0086-0.0077-0.0086-0.0078-2.0793-1.6862c-0.1286-0.1053-0.1645-0.2725-0.0941-0.412l0.0346-0.0545 2.1315-2.952 0.9321 0.55943v0.00777l0.0032 0.02258 0.0259 0.1736 9e-4 0.00918c0.0104 0.05574 0.0208 0.10865 0.0327 0.1552 0.1843 0.70954 0.6017 1.2653 1.283 1.6382 0.6347 0.34633 1.469 0.51853 2.4962 0.54773l0.0044 0.7062c-2.297-0.0635-3.7271-0.8167-4.3331-2.1484l-0.2798-0.61439-0.4018 0.55581-0.8852 1.2257-0.1844 0.2545 0.2501 0.2042 1.5783 1.28c0.7129 0.5782 0.853 1.5387 0.3491 2.2631l-0.0768 0.1021-3.4235 4.1933m-3.897-1.4528 2.4793-2.9906 0.223-0.2688-0.2842-0.2146-2.3373-1.7768c-0.37617-0.2862-0.58878-0.6933-0.61469-1.1155l0.86838 0.2921c0.03685 0.0669 0.08299 0.131 0.13838 0.1886l0.01015 0.0105 0.0109 0.0091 0.06158 0.0541 0.01091 0.0105 0.0109 0.0078 2.905 2.2088c0.1441 0.1087 0.1794 0.2935 0.092 0.4395l-0.0377 0.0517-2.9815 3.4798m-2.8883-10.626 0.29748 0.09944 0.16588-0.24453 0.6735-0.99298c0.12364-0.18216 0.26051-0.35661 0.41061-0.52125 1.4618-1.6052 3.8716-2.0719 5.8725-1.285l0.6472 0.2551-0.1102-0.63364c-0.0957-0.54826 0.0108-1.128 0.3454-1.6432 0.7646-1.1743 2.4286-1.5615 3.7173-0.86554 1.2888 0.69669 1.7137 2.2122 0.9499 3.3865-0.3531 0.54142-0.8956 0.91505-1.5061 1.0934l-0.1245 0.03667-0.0746 0.09786-0.3575 0.46588-0.6566-0.39348 0.5832-0.80395c0.5887-0.05534 1.1434-0.35629 1.4688-0.85661 0.5458-0.83835 0.2429-1.9209-0.6779-2.4182-0.9201-0.49804-2.1089-0.22133-2.6547 0.61774-0.3239 0.49678-0.3489 1.0796-0.1249 1.5749l-0.8045 1.2359c-1.8094-1.2823-4.4222-1.0313-5.8963 0.58738-0.08467 0.09296-0.16467 0.18872-0.23923 0.28799l-0.00538 0.00709-0.09834 0.13894-0.00461 0.00638-0.50761 0.74988-0.24959 0.36644 0.44507 0.15022"/>
</mask>
<path d="m15.41 13.771-0.7796-0.6272-6e-4 9e-4 0.7802 0.6263zm-0.0611-1.3211-0.7285 0.6843 0.0059 0.0062 0.7226-0.6905zm-0.0086-0.0091 0.7285-0.6843-0.0286-0.0304-0.031-0.028-0.6689 0.7427zm-0.0085-0.0077-0.673 0.7389 0.0041 0.0038 0.6689-0.7427zm-0.0694-0.0632 0.673-0.739-0.0042-0.0037-0.6688 0.7427zm-0.0172-0.0155 0.6689-0.7426-0.0193-0.0174-0.0202-0.0164-0.6294 0.7764zm-2.0793-1.6862-0.6331 0.7734 0.0037 3e-3 0.6294-0.7764zm-0.0941-0.412-0.8451-0.53543-0.0259 0.04085-0.0217 0.04316 0.8927 0.45142zm0.0346-0.0545-0.811-0.586-0.0178 0.02473-0.0164 0.02578 0.8452 0.53549zm2.1315-2.952 0.5139-0.85726-0.7876-0.47275-0.5373 0.74405 0.811 0.58596zm0.9321 0.55943 0.9999-0.00523-0.0035-0.56245-0.4825-0.28959-0.5139 0.85727zm0 0.00777-1 0.00523 4e-4 0.0683 0.0098 0.06761 0.9898-0.14114zm0.0032 0.02258-0.9898 0.14115 8e-4 0.00535 0.989-0.1465zm0.0259 0.1736 0.996-0.08929-0.0026-0.0287-0.0043-0.02851-0.9891 0.1465zm9e-4 0.00918-0.9959 0.08929 0.0042 0.04709 0.0087 0.04648 0.983-0.18286zm0.0327 0.1552-0.9687 0.24708 9e-4 0.00335 0.9678-0.25043zm1.283 1.6382-0.4793 0.87713 0.0011 6e-4 0.4782-0.87773zm2.4962 0.54773 1-0.0052-0.0061-0.9669-0.9665-0.0275-0.0274 0.9996zm0.0044 0.7062-0.0266 0.9996 1.0331 0.0286-0.0065-1.0334-1 0.0052zm-4.3331-2.1484 0.9102-0.41337-2e-4 -2.7e-4 -0.91 0.41364zm-0.2798-0.61439 0.91-0.41364-0.7132-1.5661-1.0074 1.3932 0.8106 0.58648zm-0.4018 0.55581-0.8106-0.58649-4e-4 4.7e-4 0.811 0.58602zm-0.8852 1.2257 0.81 0.5873 9e-4 -0.0013-0.8109-0.586zm-0.1844 0.2545-0.81-0.58728-0.5537 0.76418 0.7317 0.5974 0.632-0.7743zm0.2501 0.2042-0.632 0.7743 0.0026 0.0022 0.6294-0.7765zm1.5783 1.28 0.6295-0.7764h-1e-4l-0.6294 0.7764zm0.3491 2.2631 0.7992 0.602 0.0113-0.015 0.0107-0.0154-0.8212-0.5716zm-0.0768 0.1021 0.7749 0.6329 0.0124-0.0152 0.0118-0.0157-0.7991-0.602zm-4.8412-0.2501-0.7699-0.639-3e-4 3e-4 0.7702 0.6387zm0.223-0.2688 0.7699 0.639 0.6684-0.8055-0.8362-0.6313-0.6021 0.7978zm-0.2842-0.2146-0.6047 0.7958 0.0026 2e-3 0.6021-0.7978zm-2.3373-1.7768-0.60495 0.7956 3.1e-4 3e-4 0.60464-0.7959zm-0.61469-1.1155 0.31789-0.94774-1.4069-0.47323 0.09091 1.4812 0.99813-0.0602zm0.86838 0.2921 0.8758-0.4817-0.1882-0.3417-0.3697-0.12436-0.3179 0.94776zm0.13838 0.1886-0.72056 0.6926 3.5e-4 4e-4 0.72021-0.693zm0.01015 0.0105-0.72022 0.693 0.03755 0.039 0.04154 0.0348 0.64113-0.7668zm0.0109 0.0091 0.65933-0.7511-0.00901-0.0079-0.00919-0.0077-0.64113 0.7667zm0.06158 0.0541 0.69404-0.7192-0.01698-0.0164-0.01774-0.0156-0.65932 0.7512zm0.01091 0.0105-0.69404 0.7192 0.05481 0.0529 0.06218 0.044 0.57705-0.8161zm0.0109 0.0078 0.60473-0.7958-0.01366-0.0104-0.01401-0.0099-0.57706 0.8161zm2.905 2.2088-0.6047 0.7957 0.0029 0.0023 0.6018-0.798zm0.092 0.4395 0.8088 0.5888 0.0262-0.036 0.0229-0.0382-0.8579-0.5146zm-0.0377 0.0517 0.7597 0.6511 0.0258-0.0301 0.0234-0.0321-0.8089-0.5889zm-5.5723-7.0468-0.31611 0.94838 0.71877 0.24025 0.4251-0.62665-0.82776-0.56198zm0.16588-0.24453 0.82775 0.56199 5e-5 -7e-5 -0.8278-0.56192zm0.6735-0.99298-0.8276-0.56222-2e-4 3e-4 0.8278 0.56192zm0.41061-0.52125 0.73931 0.67416 3.9e-4 -4.3e-4 -0.7397-0.67373zm5.8725-1.285 0.3658-0.93029-7e-4 -2.7e-4 -0.3651 0.93056zm0.6472 0.2551-0.3658 0.93029 1.6559 0.65264-0.3049-1.7532-0.9852 0.17029zm-0.1102-0.63364 0.9853-0.17029-2e-4 -6.2e-4 -0.9851 0.17091zm0.3454-1.6432-0.8381-0.54627-6e-4 8.8e-4 0.8387 0.54539zm3.7173-0.86554 0.4749-0.87956-4e-4 -2.011e-4 -0.4745 0.87976zm0.9499 3.3865 0.8378 0.54691 7e-4 -0.00103-0.8385-0.54588zm-1.5061 1.0934-0.2813-0.95989-2e-3 5.8e-4 0.2833 0.95931zm-0.1245 0.03667-0.2834-0.95931-0.3139 0.09243-0.1983 0.26025 0.7956 0.60663zm-0.0746 0.09786 0.7936 0.60928 0.0021-0.00265-0.7957-0.60663zm-0.3575 0.46588-0.5133 0.85763 0.7648 0.45825 0.5421-0.7066-0.7936-0.60928zm-0.6566-0.39348-0.8097-0.58777-0.641 0.88369 0.9374 0.56171 0.5133-0.85763zm0.5832-0.80395-0.0946-0.99561-0.4499 0.04229-0.2651 0.36555 0.8096 0.58777zm1.4688-0.85661-0.8382-0.54622-2e-4 2.9e-4 0.8384 0.54593zm-0.6779-2.4182-0.4753 0.8793 8e-4 4.5e-4 0.4745-0.87975zm-2.6547 0.61774 0.8379 0.54686 6e-4 -9.6e-4 -0.8385-0.5459zm-0.1249 1.5749 0.8383 0.54616 0.2984-0.4585-0.2256-0.49892-0.9111 0.41126zm-0.8045 1.2359-0.5776 0.81568 0.8488 0.60158 0.5671-0.8711-0.8383-0.54616zm-5.8963 0.58738 0.73964 0.6738 6e-5 -7e-5 -0.7397-0.67373zm-0.23923 0.28799 0.79683 0.60508 0.00299-0.00398-0.79982-0.6011zm-0.00538 0.00709-0.79682-0.60507-0.01005 0.01323-0.0096 0.01356 0.81647 0.57828zm-0.09834 0.13894 0.81081 0.58627 0.00565-0.00799-0.81646-0.57828zm-0.00461 0.00638-0.81077-0.58624-0.00896 0.0124-0.00858 0.01268 0.82831 0.56116zm-0.50761 0.74988 0.82669 0.56354 0.00162-0.00238-0.82831-0.56116zm-0.24959 0.36644-0.82669-0.56355-0.74189 1.0892 1.2497 0.4218 0.3189-0.94744zm5.3842 11.577 3.3876-4.2214-1.5603-1.2527-3.3877 4.2213 1.5604 1.2528zm3.387-4.2206c0.6471-0.8047 0.5717-1.917-0.1179-2.6387l-1.4453 1.3809c0.0072 0.0075 9e-3 0.0119 9e-3 0.0119 1e-4 3e-4 -7e-4 -0.0017-9e-4 -0.0055-2e-4 -4e-3 4e-4 -0.0077 0.0012-0.0101 3e-4 -0.0011 5e-4 -0.0012 0-3e-4s-2e-3 0.0035-0.0052 0.0074l1.5591 1.2544zm-0.1121-2.6325-0.0086-0.0092-1.457 1.3686 0.0086 0.0091 1.457-1.3685zm-0.0682-0.0676-0.0086-0.0077-1.3377 1.4854 0.0086 0.0077 1.3377-1.4854zm-0.0044-0.0039-0.0694-0.0632-1.346 1.4778 0.0694 0.0632 1.346-1.4778zm-0.0736-0.067-0.0085-0.0077-1.3377 1.4853 0.0085 0.0078 1.3377-1.4854zm-0.0085-0.0077-0.0086-0.0077-1.3377 1.4853 0.0086 0.0077 1.3377-1.4853zm-0.0481-0.0415-2.0793-1.6862-1.2588 1.5528 2.0794 1.6863 1.2587-1.5529zm-2.0756-1.6832c0.2186 0.17904 0.3155 0.51614 0.1656 0.81294l-1.7855-0.90292c-0.2907 0.57582-0.122 1.2472 0.3537 1.6368l1.2662-1.5468zm0.118 0.89694 0.0345-0.0546-1.6903-1.0709-0.0345 0.05456 1.6903 1.0709zm3e-4 -0.0041 2.1315-2.952-1.6219-1.1719-2.1315 2.952 1.6219 1.1719zm0.8066-2.6807 0.9321 0.55942 1.0279-1.7145-0.9321-0.55942-1.0279 1.7145zm0.4461-0.29261v0.00777l2-0.01046-1e-4 -0.00777-1.9999 0.01046zm0.0102 0.14368 0.0032 0.02258 1.9797-0.28229-0.0033-0.02258-1.9796 0.28229zm4e-3 0.02794 0.0259 0.1736 1.9781-0.293-0.0259-0.1736-1.9781 0.293zm0.019 0.1164 9e-4 0.00917 1.9918-0.17859-8e-4 -0.00917-1.9919 0.17859zm0.0138 0.10274c0.0106 0.05633 0.0261 0.13791 0.047 0.21942l1.9375-0.49415c-3e-3 -0.01159-0.0083-0.03584-0.0186-0.09099l-1.9659 0.36572zm0.0479 0.22277c0.2527 0.97287 0.8443 1.7575 1.7715 2.2649l0.9587-1.7542c-0.4355-0.23834-0.6786-0.5653-0.7945-1.0115l-1.9357 0.50085zm1.7726 2.2655c0.8283 0.4519 1.8396 0.6381 2.947 0.6696l0.0548-1.9992c-0.947-0.02695-1.6043-0.1852-2.0453-0.42584l-0.9565 1.7554zm1.9744-0.3248 0.0044 0.7062 2-0.0104-0.0044-0.7062-2 0.0104zm1.031-0.2986c-2.1201-0.0587-3.0722-0.73294-3.4495-1.5621l-1.8203 0.82675c0.8346 1.8342 2.7428 2.6662 5.2166 2.7346l0.0532-1.9992zm-3.4497-1.5624-0.2798-0.61439-1.82 0.82729 0.2798 0.61439 1.82-0.82729zm-2.0004-0.78723-0.4018 0.5558 1.6212 1.173 0.4018-0.5558-1.6212-1.173zm-0.4022 0.55627-0.8851 1.2258 1.6218 1.172 0.8852-1.2257-1.6219-1.172zm-0.8842 1.2244-0.1844 0.25452 1.62 1.1746 0.1844-0.2545-1.62-1.1746zm-0.0064 1.6161 0.2501 0.2042 1.264-1.5486-0.2501-0.20422-1.264 1.5486zm0.2527 0.2064 1.5784 1.2799 1.2587-1.5528-1.5784-1.28-1.2587 1.5529zm1.5783 1.2798c0.3191 0.2589 0.3527 0.6345 0.1574 0.9152l1.6423 1.1432c0.8125-1.1681 0.5658-2.7135-0.5408-3.6111l-1.2589 1.5527zm0.1794 0.8849-0.0769 0.1021 1.5983 1.2039 0.0769-0.1021-1.5983-1.2039zm-0.0526 0.0711-3.4235 4.1933 1.5498 1.2658 3.4235-4.1933-1.5498-1.2658zm-5.7755 4.0121 2.4793-2.9906-1.5403-1.2774-2.4792 2.9906 1.5403 1.2774zm2.479-2.9902 0.2231-0.2689-1.5397-1.2781-0.2231 0.2689 1.5397 1.2781zm0.0553-1.7057-0.2843-0.2147-1.2041 1.5957 0.2843 0.2146 1.2041-1.5956zm-0.2817-0.2127-2.3372-1.7767-1.2093 1.5917 2.3372 1.7767 1.2093-1.5917zm-2.3369-1.7765c-0.15234-0.1159-0.21404-0.2582-0.22152-0.3801l-1.9962 0.1204c0.04435 0.7226 0.40787 1.3945 1.0079 1.8509l1.2099-1.5912zm-1.5375 0.6279 0.86839 0.2921 0.63579-1.8956-0.86839-0.29208-0.63579 1.8955zm0.31048-0.1739c0.07673 0.1393 0.17409 0.2751 0.29362 0.3994l1.4411-1.3852c0.00874 0.0091 0.01383 0.0168 0.01685 0.0223l-1.7516 0.9635zm0.29397 0.3998 0.01014 0.0105 1.4404-1.386-0.01014-0.0105-1.4404 1.386zm0.08923 0.0843 0.01091 0.0091 1.2822-1.5335-0.01091-0.0091-1.2822 1.5335zm-0.00729-0.0065 0.06157 0.0541 1.3186-1.5024-0.06157-0.054-1.3186 1.5023zm0.02686 0.0221 0.01091 0.0105 1.3881-1.4384-0.01092-0.0105-1.3881 1.4384zm0.1279 0.1074 0.0109 0.0077 1.1541-1.6321-0.0109-0.0077-1.1541 1.6321zm-0.01677-0.0126 2.905 2.2088 1.2095-1.5915-2.905-2.2088-1.2094 1.5915zm2.9079 2.2111c-0.2524-0.1905-0.3469-0.5682-0.1642-0.8731l1.7159 1.0292c0.3576-0.5968 0.1925-1.3442-0.3481-1.7521l-1.2036 1.596zm-0.1151-0.9474-0.0377 0.0518 1.6178 1.1777 0.0376-0.0518-1.6177-1.1777zm0.0115-0.0105-2.9815 3.4798 1.5193 1.3022 2.9816-3.4798-1.5194-1.3022zm-5.4262-5.5468 0.29749 0.09944 0.63223-1.8968-0.29749-0.09944-0.63223 1.8968zm1.4414-0.28696 0.16587-0.24452-1.6555-1.124-0.16588 0.24453 1.6555 1.124zm0.16592-0.24459 0.67349-0.99299-1.6556-1.1238-0.67349 0.99299 1.6556 1.1238zm0.6733-0.99269c0.09772-0.14397 0.20522-0.28087 0.32232-0.4093l-1.4786-1.3483c-0.18312 0.20085-0.34935 0.41286-0.49891 0.6332l1.6552 1.1244zm0.32271-0.40973c1.1612-1.2752 3.1224-1.6752 4.7676-1.0282l0.7303-1.8611c-2.3564-0.92676-5.215-0.39339-6.9773 1.5419l1.4794 1.3475zm4.7669-1.0285 0.6473 0.25511 0.7316-1.8606-0.6472-0.2551-0.7317 1.8606zm1.9983-0.84547-0.1101-0.63364-1.9705 0.34058 0.1102 0.63364 1.9704-0.34058zm-0.1103-0.63426c-0.0525-0.30089 0.0027-0.62448 0.1991-0.92685l-1.6775-1.0908c-0.473 0.72804-0.6306 1.5638-0.4918 2.3595l1.9702-0.34182zm0.1985-0.92598c0.4612-0.70832 1.5417-0.99812 2.4047-0.53205l0.9489-1.7595c-1.7144-0.9259-3.962-0.44118-5.0299 1.199l1.6763 1.0925zm2.4043-0.53225c0.8159 0.44106 1.0065 1.3151 0.5863 1.961l1.6769 1.0918c1.1074-1.7026 0.448-3.8596-1.3135-4.8119l-0.9497 1.7591zm0.587 1.96c-0.21 0.32196-0.5444 0.56199-0.9497 0.68042l0.5627 1.9198c0.8155-0.23825 1.5662-0.74547 2.0625-1.5064l-1.6755-1.0938zm-0.9517 0.681-0.1246 0.03667 0.5668 1.9186 0.1245-0.03667-0.5667-1.9186zm-0.6368 0.38935-0.0746 0.09785 1.5913 1.2133 0.0745-0.09785-1.5912-1.2133zm-0.0726 0.0952-0.3575 0.46588 1.5872 1.2186 0.3575-0.46588-1.5872-1.2186zm0.9495 0.21753-0.6567-0.39348-1.0266 1.7153 0.6566 0.39348 1.0267-1.7153zm-0.3603 1.0519 0.5832-0.80394-1.6193-1.1755-0.5833 0.80395 1.6194 1.1755zm-0.1318-0.39611c0.8559-0.08046 1.7018-0.52122 2.2126-1.3063l-1.6769-1.0919c-0.1402 0.21559-0.4035 0.37671-0.725 0.40693l0.1893 1.9912zm2.2124-1.306c0.8895-1.3664 0.3528-3.091-1.0417-3.8442l-0.949 1.7595c0.4472 0.2415 0.5163 0.68191 0.3142 0.99224l1.6765 1.0924zm-1.0409-3.8437c-1.3463-0.72877-3.1193-0.35421-3.9684 0.95115l1.6769 1.0918c0.2425-0.37278 0.8471-0.55165 1.3409-0.28434l0.9506-1.7586zm-3.9678 0.95019c-0.516 0.79131-0.5585 1.7362-0.1982 2.533l1.8222-0.82253c-0.0877-0.19388-0.0802-0.41454 0.0517-0.61678l-1.6757-1.0937zm-0.1254 1.5756-0.8045 1.2359 1.6766 1.0923 0.8045-1.2359-1.6766-1.0923zm0.6114 0.96641c-2.2083-1.565-5.3887-1.2746-7.2136 0.72931l1.4794 1.3475c1.1233-1.2335 3.1685-1.445 4.579-0.44543l1.1552-1.6314zm-7.2135 0.72924c-0.10366 0.11381-0.20409 0.23377-0.29942 0.3607l1.5996 1.2022c0.05378-0.07161 0.11336-0.14317 0.17905-0.21529l-1.4793-1.3476zm-0.29642 0.35673-0.00538 0.00709 1.5936 1.2101 0.00538-0.00709-1.5936-1.2101zm-0.02503 0.03388-0.09833 0.13894 1.6329 1.1566 0.09834-0.13894-1.6329-1.1566zm-0.09264 0.13098-0.00461 0.00638 1.6215 1.1725 0.00461-0.00638-1.6215-1.1725zm-0.02215 0.03146-0.5076 0.74987 1.6566 1.1223 0.50761-0.74987-1.6566-1.1223zm-0.50599 0.74749-0.24959 0.36644 1.6534 1.1271 0.24959-0.36644-1.6534-1.1271zm0.2582 1.8774 0.44507 0.15022 0.63779-1.8949-0.44507-0.15023-0.63779 1.8949z" fill="#F7F5F2" mask="url(#a)"/>
<path d="m0.41333 6.9155 10.557 3.5453" stroke="#F7F5F2" stroke-width=".5"/>
</svg>
