<svg width="21" height="21" viewBox="0 0 21 21" fill="none" xmlns="http://www.w3.org/2000/svg">
<path d="M7.22921 18.8334C7.68944 18.8334 8.06254 18.4603 8.06254 18C8.06254 17.5398 7.68944 17.1667 7.22921 17.1667C6.76897 17.1667 6.39587 17.5398 6.39587 18C6.39587 18.4603 6.76897 18.8334 7.22921 18.8334Z" stroke="#F7F5F2" stroke-linecap="round" stroke-linejoin="round"/>
<path d="M16.3958 18.8334C16.8561 18.8334 17.2292 18.4603 17.2292 18C17.2292 17.5398 16.8561 17.1667 16.3958 17.1667C15.9356 17.1667 15.5625 17.5398 15.5625 18C15.5625 18.4603 15.9356 18.8334 16.3958 18.8334Z" stroke="#F7F5F2" stroke-linecap="round" stroke-linejoin="round"/>
<path d="M2.27087 2.20831H3.93754L6.15421 12.5583C6.23552 12.9374 6.44643 13.2762 6.75063 13.5165C7.05483 13.7568 7.4333 13.8836 7.82087 13.875H15.9709C16.3502 13.8744 16.7179 13.7444 17.0134 13.5065C17.3088 13.2686 17.5143 12.9371 17.5959 12.5666L18.9709 6.37498H4.82921" stroke="#F7F5F2" stroke-linecap="round" stroke-linejoin="round"/>
</svg>
