<svg width="21" height="21" viewBox="0 0 21 21" fill="none" xmlns="http://www.w3.org/2000/svg">
<path d="M16.8958 5.5L2.5625 9.66667L1.8125 7.66667C1.5625 6.75 2.0625 5.83333 2.89584 5.58333L14.1458 2.25C15.0625 2 15.9792 2.5 16.2292 3.33334L16.8958 5.5Z" stroke="#F7F5F2" stroke-linecap="round" stroke-linejoin="round"/>
<path d="M5.22913 4.91669L7.81246 8.16669" stroke="#F7F5F2" stroke-linecap="round" stroke-linejoin="round"/>
<path d="M10.3959 3.33331L12.9792 6.66665" stroke="#F7F5F2" stroke-linecap="round" stroke-linejoin="round"/>
<path d="M2.5625 9.66669H17.5625V16.3334C17.5625 16.7754 17.3869 17.1993 17.0743 17.5119C16.7618 17.8244 16.3379 18 15.8958 18H4.22917C3.78714 18 3.36322 17.8244 3.05066 17.5119C2.73809 17.1993 2.5625 16.7754 2.5625 16.3334V9.66669Z" stroke="#F7F5F2" stroke-linecap="round" stroke-linejoin="round"/>
</svg>
