<?xml version="1.0" encoding="iso-8859-1"?>
<svg fill="#000000" height="800px" width="800px" version="1.1" id="Layer_1" xmlns="http://www.w3.org/2000/svg" xmlns:xlink="http://www.w3.org/1999/xlink" 
	 viewBox="0 0 512.017 512.017" xml:space="preserve">
<g>
	<g>
		<g>
			<path d="M70.784,270.575c1.664,1.664,3.849,2.5,6.033,2.5s4.369-0.836,6.033-2.5c3.336-3.337,3.336-8.73,0-12.066l-51.2-51.2
				c-8.141-8.141-14.566-14.566-14.566-28.1s6.426-19.959,14.566-28.1l128-128c4.864-4.864,16.051-6.016,19.567-6.033h179.2v153.609
				H196.326h-0.085H42.735c-4.719,0-8.533,3.823-8.533,8.533c0,4.71,3.814,8.533,8.533,8.533h150.025l48.691,48.691
				c1.664,1.664,3.849,2.5,6.033,2.5c2.185,0,4.369-0.836,6.033-2.5c3.337-3.337,3.337-8.73,0-12.066l-36.625-36.625h201.31
				c4.719,0,8.533-3.823,8.533-8.533c0-4.71-3.814-8.533-8.533-8.533h-42.718v-17.075h42.667c4.719,0,8.533-3.823,8.533-8.533
				c0-4.71-3.814-8.533-8.533-8.533h-42.667v-17.067h42.667c4.719,0,8.533-3.823,8.533-8.533s-3.814-8.533-8.533-8.533h-42.667
				V85.342h42.667c4.719,0,8.533-3.823,8.533-8.533s-3.814-8.533-8.533-8.533h-42.667V51.209h42.667
				c4.719,0,8.533-3.823,8.533-8.533c0-4.71-3.814-8.533-8.533-8.533h-42.667V17.075h42.667c4.719,0,8.533-3.823,8.533-8.533
				s-3.814-8.533-8.533-8.533H179.217c-2.108,0-20.907,0.307-31.633,11.034l-128,128c-8.713,8.721-19.567,19.567-19.567,40.166
				s10.854,31.445,19.567,40.166L70.784,270.575z"/>
			<path d="M494.95,411.179v-27.17c0-72.363-56.115-134.912-128.512-150.059c-2.432-16.444-16.503-29.141-33.621-29.141
				s-31.189,12.698-33.621,29.141c-72.397,15.147-128.512,77.696-128.512,150.059c0,4.71,3.814,8.533,8.533,8.533
				c4.719,0,8.533-3.823,8.533-8.533c0-64.794,53.845-122.377,120.218-134.195c0.068-0.009,0.128-0.009,0.196-0.009
				c0.06-0.009,0.102-0.043,0.162-0.043c8.013-1.408,16.179-2.287,24.491-2.287c77.278,0,145.067,63.804,145.067,136.533v34.133
				c0,4.71,3.814,8.533,8.533,8.533c4.71,0,8.533,3.831,8.533,8.533v51.2c0,4.702-3.823,8.533-8.533,8.533h-8.533v-42.667
				c0-4.71-3.814-8.533-8.533-8.533c-4.719,0-8.533,3.823-8.533,8.533v42.667H443.75v-42.667c0-4.71-3.814-8.533-8.533-8.533
				s-8.533,3.823-8.533,8.533v42.667h-17.067v-42.667c0-4.71-3.814-8.533-8.533-8.533s-8.533,3.823-8.533,8.533v42.667h-17.067
				v-42.667c0-4.71-3.814-8.533-8.533-8.533s-8.533,3.823-8.533,8.533v42.667H341.35v-42.667c0-4.71-3.814-8.533-8.533-8.533
				s-8.533,3.823-8.533,8.533v42.667h-17.067v-42.667c0-4.71-3.814-8.533-8.533-8.533c-4.719,0-8.533,3.823-8.533,8.533v42.667
				h-17.067v-42.667c0-4.71-3.814-8.533-8.533-8.533s-8.533,3.823-8.533,8.533v42.667H238.95v-42.667
				c0-4.71-3.814-8.533-8.533-8.533c-4.719,0-8.533,3.823-8.533,8.533v42.667h-17.067v-42.667c0-4.71-3.814-8.533-8.533-8.533
				s-8.533,3.823-8.533,8.533v42.667h-8.533c-4.71,0-8.533-3.831-8.533-8.533v-51.2c0-4.702,3.823-8.533,8.533-8.533h273.067
				c4.719,0,8.533-3.823,8.533-8.533s-3.814-8.533-8.533-8.533H179.217c-14.114,0-25.6,11.486-25.6,25.6v51.2
				c0,14.114,11.486,25.6,25.6,25.6h307.2c14.114,0,25.6-11.486,25.6-25.6v-51.2C512.017,424.098,504.858,414.72,494.95,411.179z
				 M332.817,230.409c-5.086,0-10.12,0.29-15.095,0.751c2.833-5.487,8.499-9.284,15.095-9.284c6.545,0,12.177,3.746,15.019,9.276
				C342.878,230.699,337.877,230.409,332.817,230.409z"/>
			<path d="M128.017,460.809H68.284v-153.6h93.867c4.719,0,8.533-3.823,8.533-8.533s-3.814-8.533-8.533-8.533H8.533
				c-4.719,0-8.533,3.823-8.533,8.533s3.814,8.533,8.533,8.533h42.684v17.067H8.533c-4.719,0-8.533,3.823-8.533,8.533
				c0,4.71,3.814,8.533,8.533,8.533h42.684v17.067H8.533c-4.719,0-8.533,3.823-8.533,8.533s3.814,8.533,8.533,8.533h42.684v17.067
				H8.533c-4.719,0-8.533,3.823-8.533,8.533s3.814,8.533,8.533,8.533h42.684v17.067H8.533c-4.719,0-8.533,3.823-8.533,8.533
				s3.814,8.533,8.533,8.533h42.684v17.067H8.533c-4.719,0-8.533,3.823-8.533,8.533s3.814,8.533,8.533,8.533h119.484
				c4.719,0,8.533-3.823,8.533-8.533S132.736,460.809,128.017,460.809z"/>
		</g>
	</g>
</g>
</svg>